<svg width="61" height="26" viewBox="0 0 61 26" fill="none" xmlns="http://www.w3.org/2000/svg">
<path d="M7.13281 10.2891H2.78516L2.76172 8.14453H6.55859C7.19922 8.14453 7.74219 8.05078 8.1875 7.86328C8.64062 7.66797 8.98438 7.39062 9.21875 7.03125C9.45312 6.66406 9.57031 6.22266 9.57031 5.70703C9.57031 5.13672 9.46094 4.67188 9.24219 4.3125C9.02344 3.95312 8.6875 3.69141 8.23438 3.52734C7.78906 3.36328 7.21875 3.28125 6.52344 3.28125H3.67578V18H0.734375V0.9375H6.52344C7.46094 0.9375 8.29688 1.02734 9.03125 1.20703C9.77344 1.38672 10.4023 1.66797 10.918 2.05078C11.4414 2.42578 11.8359 2.90234 12.1016 3.48047C12.375 4.05859 12.5117 4.74609 12.5117 5.54297C12.5117 6.24609 12.3438 6.89062 12.0078 7.47656C11.6719 8.05469 11.1758 8.52734 10.5195 8.89453C9.86328 9.26172 9.04688 9.48047 8.07031 9.55078L7.13281 10.2891ZM7.00391 18H1.85938L3.18359 15.668H7.00391C7.66797 15.668 8.22266 15.5586 8.66797 15.3398C9.11328 15.1133 9.44531 14.8047 9.66406 14.4141C9.89062 14.0156 10.0039 13.5508 10.0039 13.0195C10.0039 12.4648 9.90625 11.9844 9.71094 11.5781C9.51562 11.1641 9.20703 10.8477 8.78516 10.6289C8.36328 10.4023 7.8125 10.2891 7.13281 10.2891H3.82812L3.85156 8.14453H8.15234L8.82031 8.95312C9.75781 8.98438 10.5273 9.19141 11.1289 9.57422C11.7383 9.95703 12.1914 10.4531 12.4883 11.0625C12.7852 11.6719 12.9336 12.3281 12.9336 13.0312C12.9336 14.1172 12.6953 15.0273 12.2188 15.7617C11.75 16.4961 11.0742 17.0547 10.1914 17.4375C9.30859 17.8125 8.24609 18 7.00391 18Z" fill="#26D7FF"/>
<path d="M25.8125 12.4453H28.7422C28.6484 13.5625 28.3359 14.5586 27.8047 15.4336C27.2734 16.3008 26.5273 16.9844 25.5664 17.4844C24.6055 17.9844 23.4375 18.2344 22.0625 18.2344C21.0078 18.2344 20.0586 18.0469 19.2148 17.6719C18.3711 17.2891 17.6484 16.75 17.0469 16.0547C16.4453 15.3516 15.9844 14.5039 15.6641 13.5117C15.3516 12.5195 15.1953 11.4102 15.1953 10.1836V8.76562C15.1953 7.53906 15.3555 6.42969 15.6758 5.4375C16.0039 4.44531 16.4727 3.59766 17.082 2.89453C17.6914 2.18359 18.4219 1.64062 19.2734 1.26562C20.1328 0.890625 21.0977 0.703125 22.168 0.703125C23.5273 0.703125 24.6758 0.953125 25.6133 1.45312C26.5508 1.95312 27.2773 2.64453 27.793 3.52734C28.3164 4.41016 28.6367 5.42188 28.7539 6.5625H25.8242C25.7461 5.82812 25.5742 5.19922 25.3086 4.67578C25.0508 4.15234 24.668 3.75391 24.1602 3.48047C23.6523 3.19922 22.9883 3.05859 22.168 3.05859C21.4961 3.05859 20.9102 3.18359 20.4102 3.43359C19.9102 3.68359 19.4922 4.05078 19.1562 4.53516C18.8203 5.01953 18.5664 5.61719 18.3945 6.32812C18.2305 7.03125 18.1484 7.83594 18.1484 8.74219V10.1836C18.1484 11.043 18.2227 11.8242 18.3711 12.5273C18.5273 13.2227 18.7617 13.8203 19.0742 14.3203C19.3945 14.8203 19.8008 15.207 20.293 15.4805C20.7852 15.7539 21.375 15.8906 22.0625 15.8906C22.8984 15.8906 23.5742 15.7578 24.0898 15.4922C24.6133 15.2266 25.0078 14.8398 25.2734 14.332C25.5469 13.8164 25.7266 13.1875 25.8125 12.4453Z" fill="#FFE39B"/>
<path d="M38.2812 15.457V9.41016C38.2812 8.95703 38.1992 8.56641 38.0352 8.23828C37.8711 7.91016 37.6211 7.65625 37.2852 7.47656C36.957 7.29688 36.543 7.20703 36.043 7.20703C35.582 7.20703 35.1836 7.28516 34.8477 7.44141C34.5117 7.59766 34.25 7.80859 34.0625 8.07422C33.875 8.33984 33.7812 8.64062 33.7812 8.97656H30.9688C30.9688 8.47656 31.0898 7.99219 31.332 7.52344C31.5742 7.05469 31.9258 6.63672 32.3867 6.26953C32.8477 5.90234 33.3984 5.61328 34.0391 5.40234C34.6797 5.19141 35.3984 5.08594 36.1953 5.08594C37.1484 5.08594 37.9922 5.24609 38.7266 5.56641C39.4688 5.88672 40.0508 6.37109 40.4727 7.01953C40.9023 7.66016 41.1172 8.46484 41.1172 9.43359V15.0703C41.1172 15.6484 41.1562 16.168 41.2344 16.6289C41.3203 17.082 41.4414 17.4766 41.5977 17.8125V18H38.7031C38.5703 17.6953 38.4648 17.3086 38.3867 16.8398C38.3164 16.3633 38.2812 15.9023 38.2812 15.457ZM38.6914 10.2891L38.7148 12.0352H36.6875C36.1641 12.0352 35.7031 12.0859 35.3047 12.1875C34.9062 12.2812 34.5742 12.4219 34.3086 12.6094C34.043 12.7969 33.8438 13.0234 33.7109 13.2891C33.5781 13.5547 33.5117 13.8555 33.5117 14.1914C33.5117 14.5273 33.5898 14.8359 33.7461 15.1172C33.9023 15.3906 34.1289 15.6055 34.4258 15.7617C34.7305 15.918 35.0977 15.9961 35.5273 15.9961C36.1055 15.9961 36.6094 15.8789 37.0391 15.6445C37.4766 15.4023 37.8203 15.1094 38.0703 14.7656C38.3203 14.4141 38.4531 14.082 38.4688 13.7695L39.3828 15.0234C39.2891 15.3438 39.1289 15.6875 38.9023 16.0547C38.6758 16.4219 38.3789 16.7734 38.0117 17.1094C37.6523 17.4375 37.2188 17.707 36.7109 17.918C36.2109 18.1289 35.6328 18.2344 34.9766 18.2344C34.1484 18.2344 33.4102 18.0703 32.7617 17.7422C32.1133 17.4062 31.6055 16.957 31.2383 16.3945C30.8711 15.8242 30.6875 15.1797 30.6875 14.4609C30.6875 13.7891 30.8125 13.1953 31.0625 12.6797C31.3203 12.1562 31.6953 11.7188 32.1875 11.3672C32.6875 11.0156 33.2969 10.75 34.0156 10.5703C34.7344 10.3828 35.5547 10.2891 36.4766 10.2891H38.6914Z" fill="#FFE39B"/>
<path d="M47.0938 0V18H44.2578V0H47.0938Z" fill="#FFE39B"/>
<path d="M55.3672 15.9844C55.8281 15.9844 56.2422 15.8945 56.6094 15.7148C56.9844 15.5273 57.2852 15.2695 57.5117 14.9414C57.7461 14.6133 57.875 14.2344 57.8984 13.8047H60.5586C60.543 14.625 60.3008 15.3711 59.832 16.043C59.3633 16.7148 58.7422 17.25 57.9688 17.6484C57.1953 18.0391 56.3398 18.2344 55.4023 18.2344C54.4336 18.2344 53.5898 18.0703 52.8711 17.7422C52.1523 17.4062 51.5547 16.9453 51.0781 16.3594C50.6016 15.7734 50.2422 15.0977 50 14.332C49.7656 13.5664 49.6484 12.7461 49.6484 11.8711V11.4609C49.6484 10.5859 49.7656 9.76562 50 9C50.2422 8.22656 50.6016 7.54688 51.0781 6.96094C51.5547 6.375 52.1523 5.91797 52.8711 5.58984C53.5898 5.25391 54.4297 5.08594 55.3906 5.08594C56.4062 5.08594 57.2969 5.28906 58.0625 5.69531C58.8281 6.09375 59.4297 6.65234 59.8672 7.37109C60.3125 8.08203 60.543 8.91016 60.5586 9.85547H57.8984C57.875 9.38672 57.7578 8.96484 57.5469 8.58984C57.3438 8.20703 57.0547 7.90234 56.6797 7.67578C56.3125 7.44922 55.8711 7.33594 55.3555 7.33594C54.7852 7.33594 54.3125 7.45312 53.9375 7.6875C53.5625 7.91406 53.2695 8.22656 53.0586 8.625C52.8477 9.01562 52.6953 9.45703 52.6016 9.94922C52.5156 10.4336 52.4727 10.9375 52.4727 11.4609V11.8711C52.4727 12.3945 52.5156 12.9023 52.6016 13.3945C52.6875 13.8867 52.8359 14.3281 53.0469 14.7188C53.2656 15.1016 53.5625 15.4102 53.9375 15.6445C54.3125 15.8711 54.7891 15.9844 55.3672 15.9844Z" fill="#FFE39B"/>
<path d="M24.5703 23.5352C24.5703 23.418 24.5521 23.3138 24.5156 23.2227C24.4818 23.1315 24.4206 23.0482 24.332 22.9727C24.2435 22.8971 24.1185 22.8242 23.957 22.7539C23.7982 22.681 23.5951 22.6068 23.3477 22.5312C23.0768 22.4479 22.8268 22.3555 22.5977 22.2539C22.3711 22.1497 22.1732 22.0299 22.0039 21.8945C21.8346 21.7565 21.7031 21.599 21.6094 21.4219C21.5156 21.2422 21.4688 21.0352 21.4688 20.8008C21.4688 20.569 21.5169 20.3581 21.6133 20.168C21.7122 19.9779 21.8516 19.8138 22.0312 19.6758C22.2135 19.5352 22.4284 19.4271 22.6758 19.3516C22.9232 19.2734 23.1966 19.2344 23.4961 19.2344C23.918 19.2344 24.2812 19.3125 24.5859 19.4688C24.8932 19.625 25.1289 19.8346 25.293 20.0977C25.4596 20.3607 25.543 20.651 25.543 20.9688H24.5703C24.5703 20.7812 24.5299 20.6159 24.4492 20.4727C24.3711 20.3268 24.2513 20.2122 24.0898 20.1289C23.931 20.0456 23.7292 20.0039 23.4844 20.0039C23.2526 20.0039 23.0599 20.0391 22.9062 20.1094C22.7526 20.1797 22.638 20.2747 22.5625 20.3945C22.487 20.5143 22.4492 20.6497 22.4492 20.8008C22.4492 20.9076 22.474 21.0052 22.5234 21.0938C22.5729 21.1797 22.6484 21.2604 22.75 21.3359C22.8516 21.4089 22.9792 21.4779 23.1328 21.543C23.2865 21.6081 23.4674 21.6706 23.6758 21.7305C23.9909 21.8242 24.2656 21.9284 24.5 22.043C24.7344 22.1549 24.9297 22.2826 25.0859 22.4258C25.2422 22.569 25.3594 22.7318 25.4375 22.9141C25.5156 23.0938 25.5547 23.2982 25.5547 23.5273C25.5547 23.7669 25.5065 23.9831 25.4102 24.1758C25.3138 24.3659 25.1758 24.5286 24.9961 24.6641C24.819 24.7969 24.6055 24.8997 24.3555 24.9727C24.1081 25.043 23.832 25.0781 23.5273 25.0781C23.2539 25.0781 22.9844 25.0417 22.7188 24.9688C22.4557 24.8958 22.2161 24.7852 22 24.6367C21.7839 24.4857 21.612 24.2982 21.4844 24.0742C21.3568 23.8477 21.293 23.5833 21.293 23.2812H22.2734C22.2734 23.4661 22.3047 23.6237 22.3672 23.7539C22.4323 23.8841 22.5221 23.9909 22.6367 24.0742C22.7513 24.1549 22.8841 24.2148 23.0352 24.2539C23.1888 24.293 23.3529 24.3125 23.5273 24.3125C23.7565 24.3125 23.9479 24.2799 24.1016 24.2148C24.2578 24.1497 24.375 24.0586 24.4531 23.9414C24.5312 23.8242 24.5703 23.6888 24.5703 23.5352Z" fill="#26D7FF"/>
<path d="M30.0997 21.6875V22.4648H27.0802V21.6875H30.0997ZM27.3223 19.3125V25H26.3419V19.3125H27.3223ZM30.8536 19.3125V25H29.877V19.3125H30.8536Z" fill="#26D7FF"/>
<path d="M35.6642 24.2227V25H32.6447V24.2227H35.6642ZM32.922 19.3125V25H31.9416V19.3125H32.922ZM35.2697 21.6875V22.4531H32.6447V21.6875H35.2697ZM35.6447 19.3125V20.0938H32.6447V19.3125H35.6447Z" fill="#26D7FF"/>
<path d="M38.3342 23.9609L39.8303 19.3125H40.9123L38.8733 25H38.1428L38.3342 23.9609ZM36.9514 19.3125L38.4358 23.9609L38.6389 25H37.9045L35.8733 19.3125H36.9514Z" fill="#26D7FF"/>
<path d="M43.8089 19.3125V25H42.8363V19.3125H43.8089ZM45.5941 19.3125V20.0938H41.0667V19.3125H45.5941Z" fill="#26D7FF"/>
<path d="M49.1938 23.5352C49.1938 23.418 49.1755 23.3138 49.1391 23.2227C49.1052 23.1315 49.044 23.0482 48.9555 22.9727C48.8669 22.8971 48.7419 22.8242 48.5805 22.7539C48.4216 22.681 48.2185 22.6068 47.9711 22.5312C47.7003 22.4479 47.4503 22.3555 47.2211 22.2539C46.9945 22.1497 46.7966 22.0299 46.6273 21.8945C46.4581 21.7565 46.3266 21.599 46.2328 21.4219C46.1391 21.2422 46.0922 21.0352 46.0922 20.8008C46.0922 20.569 46.1404 20.3581 46.2367 20.168C46.3357 19.9779 46.475 19.8138 46.6547 19.6758C46.837 19.5352 47.0518 19.4271 47.2992 19.3516C47.5466 19.2734 47.8201 19.2344 48.1195 19.2344C48.5414 19.2344 48.9047 19.3125 49.2094 19.4688C49.5167 19.625 49.7523 19.8346 49.9164 20.0977C50.0831 20.3607 50.1664 20.651 50.1664 20.9688H49.1938C49.1938 20.7812 49.1534 20.6159 49.0727 20.4727C48.9945 20.3268 48.8747 20.2122 48.7133 20.1289C48.5544 20.0456 48.3526 20.0039 48.1078 20.0039C47.876 20.0039 47.6833 20.0391 47.5297 20.1094C47.376 20.1797 47.2615 20.2747 47.1859 20.3945C47.1104 20.5143 47.0727 20.6497 47.0727 20.8008C47.0727 20.9076 47.0974 21.0052 47.1469 21.0938C47.1964 21.1797 47.2719 21.2604 47.3734 21.3359C47.475 21.4089 47.6026 21.4779 47.7563 21.543C47.9099 21.6081 48.0909 21.6706 48.2992 21.7305C48.6143 21.8242 48.8891 21.9284 49.1234 22.043C49.3578 22.1549 49.5531 22.2826 49.7094 22.4258C49.8656 22.569 49.9828 22.7318 50.0609 22.9141C50.1391 23.0938 50.1781 23.2982 50.1781 23.5273C50.1781 23.7669 50.1299 23.9831 50.0336 24.1758C49.9372 24.3659 49.7992 24.5286 49.6195 24.6641C49.4424 24.7969 49.2289 24.8997 48.9789 24.9727C48.7315 25.043 48.4555 25.0781 48.1508 25.0781C47.8773 25.0781 47.6078 25.0417 47.3422 24.9688C47.0792 24.8958 46.8396 24.7852 46.6234 24.6367C46.4073 24.4857 46.2354 24.2982 46.1078 24.0742C45.9802 23.8477 45.9164 23.5833 45.9164 23.2812H46.8969C46.8969 23.4661 46.9281 23.6237 46.9906 23.7539C47.0557 23.8841 47.1456 23.9909 47.2602 24.0742C47.3747 24.1549 47.5076 24.2148 47.6586 24.2539C47.8122 24.293 47.9763 24.3125 48.1508 24.3125C48.3799 24.3125 48.5714 24.2799 48.725 24.2148C48.8813 24.1497 48.9984 24.0586 49.0766 23.9414C49.1547 23.8242 49.1938 23.6888 49.1938 23.5352Z" fill="#26D7FF"/>
<path d="M55.5005 22V22.3125C55.5005 22.7422 55.4445 23.1276 55.3325 23.4688C55.2205 23.8099 55.0604 24.1003 54.852 24.3398C54.6463 24.5794 54.3989 24.763 54.1098 24.8906C53.8208 25.0156 53.5005 25.0781 53.1489 25.0781C52.7999 25.0781 52.4809 25.0156 52.1919 24.8906C51.9054 24.763 51.6567 24.5794 51.4458 24.3398C51.2348 24.1003 51.0708 23.8099 50.9536 23.4688C50.839 23.1276 50.7817 22.7422 50.7817 22.3125V22C50.7817 21.5703 50.839 21.1862 50.9536 20.8477C51.0682 20.5065 51.2296 20.2161 51.438 19.9766C51.6489 19.7344 51.8976 19.5508 52.1841 19.4258C52.4731 19.2982 52.7921 19.2344 53.1411 19.2344C53.4927 19.2344 53.813 19.2982 54.102 19.4258C54.3911 19.5508 54.6398 19.7344 54.8481 19.9766C55.0565 20.2161 55.2166 20.5065 55.3286 20.8477C55.4432 21.1862 55.5005 21.5703 55.5005 22ZM54.52 22.3125V21.9922C54.52 21.6745 54.4888 21.3945 54.4263 21.1523C54.3664 20.9076 54.2765 20.7031 54.1567 20.5391C54.0395 20.3724 53.895 20.2474 53.7231 20.1641C53.5513 20.0781 53.3572 20.0352 53.1411 20.0352C52.9249 20.0352 52.7322 20.0781 52.563 20.1641C52.3937 20.2474 52.2492 20.3724 52.1294 20.5391C52.0122 20.7031 51.9223 20.9076 51.8598 21.1523C51.7973 21.3945 51.7661 21.6745 51.7661 21.9922V22.3125C51.7661 22.6302 51.7973 22.9115 51.8598 23.1562C51.9223 23.401 52.0135 23.6081 52.1333 23.7773C52.2557 23.944 52.4015 24.0703 52.5708 24.1562C52.7401 24.2396 52.9328 24.2812 53.1489 24.2812C53.3677 24.2812 53.5617 24.2396 53.7309 24.1562C53.9002 24.0703 54.0434 23.944 54.1606 23.7773C54.2778 23.6081 54.3664 23.401 54.4263 23.1562C54.4888 22.9115 54.52 22.6302 54.52 22.3125Z" fill="#26D7FF"/>
<path d="M58.2642 23.9609L59.7603 19.3125H60.8423L58.8033 25H58.0728L58.2642 23.9609ZM56.8814 19.3125L58.3658 23.9609L58.5689 25H57.8345L55.8033 19.3125H56.8814Z" fill="#26D7FF"/>
</svg>
